<svg width="270" height="102" viewBox="0 0 270 102" fill="none" xmlns="http://www.w3.org/2000/svg">
<path d="M10.337 22.2443L10.5 22.0956V21.875C10.5 20.9426 10.5038 17.7623 11.9155 14.826C12.6173 13.3662 13.6617 11.979 15.2186 10.9548C16.7736 9.93198 18.8722 9.25 21.7188 9.25V8.75C21.7188 9.25 21.7192 9.25 21.7201 9.25L21.724 9.25L21.7395 9.25L21.8012 9.24997L22.0443 9.24973C22.2589 9.24946 22.5772 9.24893 22.9922 9.24786C23.8224 9.24572 25.0398 9.24145 26.5891 9.2329C29.6876 9.21581 34.1139 9.18162 39.4254 9.11324C50.0479 8.97649 64.2127 8.70298 78.3787 8.15588C92.5418 7.60889 106.718 6.78803 117.357 5.55527C122.674 4.93931 127.129 4.21823 130.263 3.37086C131.826 2.94825 133.093 2.48613 133.979 1.97287C134.375 1.74323 134.732 1.48163 135 1.18316C135.268 1.48163 135.625 1.74323 136.022 1.97287C136.908 2.48613 138.174 2.94825 139.737 3.37086C142.872 4.21823 147.326 4.93931 152.643 5.55527C163.283 6.78803 177.458 7.60889 191.621 8.15588C205.787 8.70298 219.952 8.97649 230.575 9.11324C235.886 9.18162 240.312 9.21581 243.411 9.2329C244.96 9.24145 246.178 9.24572 247.008 9.24786C247.423 9.24893 247.741 9.24946 247.956 9.24973L248.199 9.24997L248.261 9.25L248.276 9.25L248.28 9.25C248.281 9.25 248.281 9.25 248.281 8.75V9.25C251.128 9.25 253.226 9.93198 254.781 10.9548C256.338 11.979 257.383 13.3662 258.085 14.826C259.496 17.7623 259.5 20.9426 259.5 21.875V22.0956L259.663 22.2443L264.502 26.6601C264.563 29.7142 265.868 31.3373 267.241 32.1698C267.928 32.5862 268.611 32.7925 269.12 32.8954C269.26 32.9237 269.388 32.9444 269.5 32.9594V45.4156C269.388 45.4306 269.26 45.4513 269.12 45.4796C268.611 45.5825 267.928 45.7888 267.241 46.2052C265.868 47.0377 264.563 48.6608 264.502 51.7149L259.663 56.1307L259.5 56.2794V56.5C259.5 57.4324 259.496 60.6127 258.085 63.549C257.383 65.0088 256.338 66.396 254.781 67.4202C253.226 68.443 251.128 69.125 248.281 69.125V69.625C248.281 69.125 248.281 69.125 248.281 69.125H248.279H248.272L248.245 69.125L248.137 69.1251L247.714 69.1256C247.341 69.1262 246.79 69.1275 246.078 69.13C244.652 69.1349 242.578 69.1449 239.984 69.1648C234.797 69.2045 227.531 69.2841 219.216 69.4431C202.589 69.7612 181.757 70.3975 164.962 71.6708L164.5 71.7058V72.1693V85C164.5 94.1127 157.113 101.5 148 101.5H122C112.887 101.5 105.5 94.1127 105.5 85V72.1693V71.7058L105.038 71.6708C88.2428 70.3975 67.411 69.7612 50.7836 69.4431C42.4687 69.2841 35.2029 69.2045 30.0158 69.1648C27.4222 69.1449 25.3482 69.1349 23.9225 69.13C23.2096 69.1275 22.6588 69.1262 22.2862 69.1256L21.8628 69.1251L21.7551 69.125L21.7279 69.125H21.7211H21.7193C21.719 69.125 21.7188 69.125 21.7188 69.625V69.125C18.8722 69.125 16.7736 68.443 15.2186 67.4202C13.6617 66.396 12.6173 65.0088 11.9155 63.549C10.5038 60.6127 10.5 57.4324 10.5 56.5V56.2794L10.337 56.1307L5.49781 51.7149C5.43733 48.6608 4.13231 47.0377 2.75921 46.2052C2.07223 45.7888 1.38913 45.5825 0.88029 45.4796C0.73999 45.4513 0.612105 45.4306 0.5 45.4156V32.9594C0.612105 32.9444 0.73999 32.9237 0.88029 32.8954C1.38913 32.7925 2.07223 32.5862 2.75921 32.1698C4.13231 31.3373 5.43733 29.7142 5.49781 26.6601L10.337 22.2443Z" stroke="#FF0000"/>
</svg>
