<svg width="270" height="79" viewBox="0 0 270 79" fill="none" xmlns="http://www.w3.org/2000/svg">
<g filter="url(#filter0_i_43_16)">
<path d="M21.7188 8.75C10 8.75 10 20 10 21.875L5 26.4375C5 32.5 0 32.5 0 32.5V45.875C0 45.875 5 45.875 5 51.9375L10 56.5C10 58.375 10 69.625 21.7188 69.625C21.7188 69.625 135 69.625 135 78.375C135 69.625 248.281 69.625 248.281 69.625C260 69.625 260 58.375 260 56.5L265 51.9375C265 45.875 270 45.875 270 45.875V32.5C270 32.5 265 32.5 265 26.4375L260 21.875C260 20 260 8.75 248.281 8.75C248.281 8.75 135 8.75 135 0C135 8.75 21.7188 8.75 21.7188 8.75Z" fill="url(#paint0_radial_43_16)"/>
</g>
<path d="M10.6741 22.6137L11 22.3163V21.875C11 20.9477 11.0076 17.8684 12.3661 15.0427C13.0374 13.6464 14.0274 12.3368 15.4934 11.3726C16.9555 10.4108 18.9554 9.75 21.7188 9.75V8.75C21.7188 9.75 21.7192 9.75 21.7201 9.75L21.7241 9.75L21.7397 9.75L21.8015 9.74997L22.045 9.74973C22.2597 9.74946 22.5782 9.74893 22.9935 9.74786C23.8241 9.74572 25.042 9.74145 26.5918 9.73289C29.6914 9.71579 34.119 9.68159 39.4318 9.6132C50.0568 9.47642 64.2262 9.20283 78.398 8.65551C92.564 8.1084 106.755 7.28699 117.415 6.05195C122.737 5.43527 127.222 4.71087 130.393 3.85353C131.971 3.42701 133.287 2.95138 134.229 2.40551C134.493 2.25294 134.758 2.07648 135 1.87354C135.242 2.07648 135.508 2.25294 135.771 2.40551C136.713 2.95138 138.029 3.42701 139.607 3.85353C142.778 4.71087 147.263 5.43527 152.585 6.05195C163.245 7.28699 177.436 8.1084 191.602 8.65551C205.774 9.20283 219.943 9.47642 230.568 9.6132C235.881 9.68159 240.309 9.71579 243.408 9.73289C244.958 9.74145 246.176 9.74572 247.007 9.74786C247.422 9.74893 247.74 9.74946 247.955 9.74973L248.199 9.74997L248.26 9.75L248.276 9.75L248.28 9.75C248.281 9.75 248.281 9.75 248.281 8.75V9.75C251.045 9.75 253.045 10.4108 254.507 11.3726C255.973 12.3368 256.963 13.6464 257.634 15.0427C258.992 17.8684 259 20.9477 259 21.875V22.3163L259.326 22.6137L264.009 26.8867C264.129 29.9686 265.49 31.6932 266.982 32.5973C267.721 33.0457 268.453 33.2689 269 33.3812V44.9938C268.453 45.1061 267.721 45.3293 266.982 45.7777C265.49 46.6818 264.129 48.4064 264.009 51.4883L259.326 55.7613L259 56.0587V56.5C259 57.4273 258.992 60.5066 257.634 63.3323C256.963 64.7286 255.973 66.0382 254.507 67.0024C253.045 67.9642 251.045 68.625 248.281 68.625V69.625C248.281 68.625 248.281 68.625 248.28 68.625H248.276L248.26 68.625L248.199 68.625L247.955 68.6253C247.74 68.6255 247.422 68.6261 247.007 68.6271C246.176 68.6293 244.958 68.6336 243.408 68.6421C240.309 68.6592 235.881 68.6934 230.568 68.7618C219.943 68.8986 205.774 69.1722 191.602 69.7195C177.436 70.2666 163.245 71.088 152.585 72.3231C147.263 72.9397 142.778 73.6641 139.607 74.5215C138.029 74.948 136.713 75.4236 135.771 75.9695C135.508 76.1221 135.242 76.2985 135 76.5015C134.758 76.2985 134.493 76.1221 134.229 75.9695C133.287 75.4236 131.971 74.948 130.393 74.5215C127.222 73.6641 122.737 72.9397 117.415 72.3231C106.755 71.088 92.564 70.2666 78.398 69.7195C64.2262 69.1722 50.0568 68.8986 39.4318 68.7618C34.119 68.6934 29.6914 68.6592 26.5918 68.6421C25.042 68.6336 23.8241 68.6293 22.9935 68.6271C22.5782 68.6261 22.2597 68.6255 22.045 68.6253L21.8015 68.625L21.7397 68.625L21.7241 68.625H21.7201C21.7192 68.625 21.7188 68.625 21.7188 69.625V68.625C18.9554 68.625 16.9555 67.9642 15.4934 67.0024C14.0274 66.0382 13.0374 64.7286 12.3661 63.3323C11.0076 60.5066 11 57.4273 11 56.5V56.0587L10.6741 55.7613L5.99134 51.4883C5.87078 48.4064 4.50966 46.6818 3.01842 45.7777C2.27883 45.3293 1.54679 45.1061 1 44.9938V33.3812C1.54679 33.2689 2.27883 33.0457 3.01842 32.5973C4.50966 31.6933 5.87078 29.9686 5.99134 26.8867L10.6741 22.6137Z" stroke="#855B07" stroke-width="2"/>
<path d="M10.6741 22.6137L11 22.3163V21.875C11 20.9477 11.0076 17.8684 12.3661 15.0427C13.0374 13.6464 14.0274 12.3368 15.4934 11.3726C16.9555 10.4108 18.9554 9.75 21.7188 9.75V8.75C21.7188 9.75 21.7192 9.75 21.7201 9.75L21.7241 9.75L21.7397 9.75L21.8015 9.74997L22.045 9.74973C22.2597 9.74946 22.5782 9.74893 22.9935 9.74786C23.8241 9.74572 25.042 9.74145 26.5918 9.73289C29.6914 9.71579 34.119 9.68159 39.4318 9.6132C50.0568 9.47642 64.2262 9.20283 78.398 8.65551C92.564 8.1084 106.755 7.28699 117.415 6.05195C122.737 5.43527 127.222 4.71087 130.393 3.85353C131.971 3.42701 133.287 2.95138 134.229 2.40551C134.493 2.25294 134.758 2.07648 135 1.87354C135.242 2.07648 135.508 2.25294 135.771 2.40551C136.713 2.95138 138.029 3.42701 139.607 3.85353C142.778 4.71087 147.263 5.43527 152.585 6.05195C163.245 7.28699 177.436 8.1084 191.602 8.65551C205.774 9.20283 219.943 9.47642 230.568 9.6132C235.881 9.68159 240.309 9.71579 243.408 9.73289C244.958 9.74145 246.176 9.74572 247.007 9.74786C247.422 9.74893 247.74 9.74946 247.955 9.74973L248.199 9.74997L248.26 9.75L248.276 9.75L248.28 9.75C248.281 9.75 248.281 9.75 248.281 8.75V9.75C251.045 9.75 253.045 10.4108 254.507 11.3726C255.973 12.3368 256.963 13.6464 257.634 15.0427C258.992 17.8684 259 20.9477 259 21.875V22.3163L259.326 22.6137L264.009 26.8867C264.129 29.9686 265.49 31.6932 266.982 32.5973C267.721 33.0457 268.453 33.2689 269 33.3812V44.9938C268.453 45.1061 267.721 45.3293 266.982 45.7777C265.49 46.6818 264.129 48.4064 264.009 51.4883L259.326 55.7613L259 56.0587V56.5C259 57.4273 258.992 60.5066 257.634 63.3323C256.963 64.7286 255.973 66.0382 254.507 67.0024C253.045 67.9642 251.045 68.625 248.281 68.625V69.625C248.281 68.625 248.281 68.625 248.28 68.625H248.276L248.26 68.625L248.199 68.625L247.955 68.6253C247.74 68.6255 247.422 68.6261 247.007 68.6271C246.176 68.6293 244.958 68.6336 243.408 68.6421C240.309 68.6592 235.881 68.6934 230.568 68.7618C219.943 68.8986 205.774 69.1722 191.602 69.7195C177.436 70.2666 163.245 71.088 152.585 72.3231C147.263 72.9397 142.778 73.6641 139.607 74.5215C138.029 74.948 136.713 75.4236 135.771 75.9695C135.508 76.1221 135.242 76.2985 135 76.5015C134.758 76.2985 134.493 76.1221 134.229 75.9695C133.287 75.4236 131.971 74.948 130.393 74.5215C127.222 73.6641 122.737 72.9397 117.415 72.3231C106.755 71.088 92.564 70.2666 78.398 69.7195C64.2262 69.1722 50.0568 68.8986 39.4318 68.7618C34.119 68.6934 29.6914 68.6592 26.5918 68.6421C25.042 68.6336 23.8241 68.6293 22.9935 68.6271C22.5782 68.6261 22.2597 68.6255 22.045 68.6253L21.8015 68.625L21.7397 68.625L21.7241 68.625H21.7201C21.7192 68.625 21.7188 68.625 21.7188 69.625V68.625C18.9554 68.625 16.9555 67.9642 15.4934 67.0024C14.0274 66.0382 13.0374 64.7286 12.3661 63.3323C11.0076 60.5066 11 57.4273 11 56.5V56.0587L10.6741 55.7613L5.99134 51.4883C5.87078 48.4064 4.50966 46.6818 3.01842 45.7777C2.27883 45.3293 1.54679 45.1061 1 44.9938V33.3812C1.54679 33.2689 2.27883 33.0457 3.01842 32.5973C4.50966 31.6933 5.87078 29.9686 5.99134 26.8867L10.6741 22.6137Z" stroke="black" stroke-opacity="0.2" stroke-width="2"/>
<g filter="url(#filter1_d_43_16)">
<path d="M36.6999 50.248C36.2305 50.248 35.7719 50.216 35.3239 50.152C33.9799 49.9813 32.9879 49.5867 32.3479 48.968C31.7292 48.3493 31.4199 47.6773 31.4199 46.952C31.4199 46.1627 31.7719 45.448 32.4759 44.808C33.2012 44.168 34.2145 43.848 35.5159 43.848C35.9212 43.848 36.3479 43.8907 36.7959 43.976C37.2652 44.04 37.7559 44.1573 38.2679 44.328C38.5239 44.4133 38.6519 44.5307 38.6519 44.68C38.6519 44.7653 38.5879 44.808 38.4599 44.808C38.3319 44.808 38.2252 44.7867 38.1399 44.744C37.7985 44.616 37.4679 44.5307 37.1479 44.488C36.8492 44.424 36.5612 44.392 36.2839 44.392C35.3665 44.392 34.6625 44.6587 34.1719 45.192C33.7025 45.704 33.4679 46.2693 33.4679 46.888C33.4679 47.4853 33.7132 48.0293 34.2039 48.52C34.6945 49.0107 35.4732 49.256 36.5399 49.256C37.8839 49.256 39.1212 48.9467 40.2519 48.328C41.4039 47.7093 42.4919 46.8987 43.5159 45.896C44.6039 44.8293 45.5959 43.5493 46.4919 42.056C47.3879 40.5413 48.2732 38.9307 49.1479 37.224C50.0439 35.496 51.0145 33.7573 52.0599 32.008C53.1052 30.2587 54.3105 28.616 55.6759 27.08C55.9532 26.7813 56.2305 26.472 56.5079 26.152C56.8065 25.8107 57.0945 25.5227 57.3719 25.288C56.6465 25.1813 55.8999 25.1067 55.1319 25.064C54.3639 25 53.6065 24.968 52.8599 24.968C51.7505 24.968 50.6945 25.0213 49.6919 25.128C48.7105 25.2133 47.7292 25.3413 46.7479 25.512C45.7452 25.704 44.6252 26.0027 43.3879 26.408C42.1505 26.8133 40.9452 27.3467 39.7719 28.008C38.6199 28.648 37.6279 29.4267 36.7959 30.344C35.9852 31.2613 35.4839 32.3173 35.2919 33.512C35.2705 33.6187 35.2492 33.736 35.2279 33.864C35.2279 33.9707 35.2279 34.0773 35.2279 34.184C35.2279 35.1653 35.5585 35.976 36.2199 36.616C36.9025 37.256 37.6919 37.576 38.5879 37.576C39.2492 37.576 39.8892 37.4053 40.5079 37.064C41.1265 36.7013 41.6812 36.232 42.1719 35.656C42.6625 35.0587 43.0252 34.408 43.2599 33.704C43.2812 33.4907 43.3665 33.384 43.5159 33.384C43.6439 33.384 43.7079 33.5013 43.7079 33.736C43.6865 34.6747 43.4092 35.4853 42.8759 36.168C42.3639 36.8507 41.7132 37.3733 40.9239 37.736C40.1345 38.0773 39.3345 38.248 38.5239 38.248C37.6919 38.248 36.9025 38.0773 36.1559 37.736C35.4092 37.3733 34.8012 36.8507 34.3319 36.168C33.8625 35.464 33.6279 34.6 33.6279 33.576C33.6279 32.3813 33.9159 31.3253 34.4919 30.408C35.0892 29.4907 35.8785 28.6907 36.8599 28.008C37.8412 27.304 38.9079 26.7173 40.0599 26.248C41.2119 25.7573 42.3639 25.3733 43.5159 25.096C44.6679 24.7973 45.7132 24.5733 46.6519 24.424C47.6119 24.2747 48.6039 24.1573 49.6279 24.072C50.6732 23.9867 51.7292 23.944 52.7959 23.944C53.7132 23.944 54.6305 23.9867 55.5479 24.072C56.4652 24.1573 57.3612 24.2853 58.2359 24.456C58.5985 24.1787 58.9719 23.9333 59.3559 23.72C59.7399 23.5067 60.1665 23.3147 60.6359 23.144C60.9345 23.016 61.1585 22.952 61.3079 22.952C61.4359 22.952 61.4999 22.9947 61.4999 23.08C61.4999 23.2293 61.3292 23.4107 60.9879 23.624C60.8172 23.7093 60.6039 23.8587 60.3479 24.072C60.0919 24.2853 59.8145 24.5307 59.5159 24.808C60.9025 25.1493 62.1505 25.6613 63.2599 26.344C64.4759 27.0693 65.3399 27.8373 65.8519 28.648C66.3852 29.4587 66.6519 30.2907 66.6519 31.144C66.6519 32.1253 66.3532 33.1067 65.7559 34.088C65.1585 35.048 64.3799 35.944 63.4199 36.776C62.4599 37.608 61.4039 38.3333 60.2519 38.952C59.0999 39.5493 57.9585 39.9867 56.8279 40.264C55.7399 40.5413 54.6412 40.744 53.5319 40.872C52.4225 41 51.4305 41.064 50.5559 41.064C50.4065 41.064 50.2465 41.064 50.0759 41.064C49.9265 41.064 49.7772 41.0533 49.6279 41.032C48.9025 42.056 48.1559 43.0587 47.3879 44.04C46.6199 45 45.7559 45.9387 44.7959 46.856C43.6225 47.9653 42.3425 48.808 40.9559 49.384C39.5692 49.96 38.1505 50.248 36.6999 50.248ZM50.0759 40.328C50.8865 40.3493 51.7932 40.2853 52.7959 40.136C53.7985 39.9867 54.8012 39.7627 55.8039 39.464C57.4679 38.952 58.9612 38.216 60.2839 37.256C61.6279 36.296 62.6839 35.2293 63.4519 34.056C64.2412 32.8827 64.6359 31.7307 64.6359 30.6C64.6359 29.9173 64.4652 29.2667 64.1239 28.648C63.8039 28.0293 63.2705 27.4747 62.5239 26.984C62.0332 26.664 61.4785 26.3867 60.8599 26.152C60.2412 25.9173 59.5905 25.7253 58.9079 25.576C57.8199 27.112 56.7959 28.712 55.8359 30.376C54.8972 32.04 53.9585 33.7147 53.0199 35.4C52.1025 37.0853 51.1212 38.728 50.0759 40.328ZM68.6851 49.096C68.1945 49.096 67.7571 48.9573 67.3731 48.68C67.0105 48.4027 66.8291 47.8373 66.8291 46.984C66.8291 46.6213 66.8505 46.28 66.8931 45.96C66.9571 45.64 67.0318 45.2987 67.1171 44.936C66.9251 45.256 66.6585 45.6507 66.3171 46.12C65.9758 46.5893 65.5918 47.048 65.1651 47.496C64.7598 47.944 64.3331 48.3173 63.8851 48.616C63.4585 48.9147 63.0531 49.064 62.6691 49.064C62.1145 49.064 61.6665 48.8187 61.3251 48.328C60.9838 47.816 60.8131 47.1547 60.8131 46.344C60.8131 45.4693 61.0158 44.5307 61.4211 43.528C61.8265 42.5253 62.3811 41.5653 63.0851 40.648C63.7891 39.7307 64.5998 38.984 65.5171 38.408C66.4345 37.832 67.3945 37.544 68.3971 37.544C68.8878 37.544 69.3571 37.6293 69.8051 37.8C70.2531 37.9493 70.6478 38.2053 70.9891 38.568C71.1385 38.7173 71.2131 38.888 71.2131 39.08C71.2131 39.208 71.1598 39.3147 71.0531 39.4C70.9465 39.4853 70.8078 39.5067 70.6371 39.464C70.4025 38.7173 69.9011 38.344 69.1331 38.344C68.7705 38.344 68.3545 38.4613 67.8851 38.696C67.3091 38.9947 66.6905 39.4747 66.0291 40.136C65.3891 40.776 64.7811 41.512 64.2051 42.344C63.6505 43.1547 63.1918 43.976 62.8291 44.808C62.4665 45.64 62.2851 46.3973 62.2851 47.08C62.2851 47.784 62.5518 48.136 63.0851 48.136C63.5545 48.136 64.0345 47.912 64.5251 47.464C65.0371 47.016 65.5171 46.4613 65.9651 45.8C66.4345 45.1173 66.8611 44.4453 67.2451 43.784C67.6291 43.1227 67.9278 42.5893 68.1411 42.184C68.4611 41.608 68.7598 41.128 69.0371 40.744C69.3145 40.36 69.7091 40.168 70.2211 40.168C70.4558 40.168 70.6905 40.2 70.9251 40.264C71.1598 40.328 71.4051 40.3387 71.6611 40.296C71.0211 40.936 70.4558 41.6933 69.9651 42.568C69.4958 43.4427 69.1331 44.3067 68.8771 45.16C68.6211 45.992 68.4931 46.696 68.4931 47.272C68.4931 47.912 68.7065 48.232 69.1331 48.232C69.4745 48.232 69.8371 48.04 70.2211 47.656C70.6265 47.272 71.0105 46.792 71.3731 46.216C71.7571 45.6187 72.1091 45.0213 72.4291 44.424C72.7491 43.8053 73.0051 43.272 73.1971 42.824C73.3038 42.824 73.3891 42.8347 73.4531 42.856C73.5385 42.8773 73.5811 42.9627 73.5811 43.112C73.5598 43.1973 73.5171 43.2933 73.4531 43.4C73.4105 43.4853 73.3358 43.6453 73.2291 43.88C73.0585 44.2213 72.8238 44.68 72.5251 45.256C72.2265 45.832 71.8745 46.4187 71.4691 47.016C71.0638 47.592 70.6265 48.0827 70.1571 48.488C69.6878 48.8933 69.1971 49.096 68.6851 49.096ZM71.4179 49.256C72.1859 47.6987 72.9219 46.1627 73.6259 44.648C74.3299 43.112 75.0552 41.6507 75.8019 40.264C76.2285 39.496 76.5912 38.9627 76.8899 38.664C77.1885 38.344 77.5832 38.184 78.0739 38.184C78.2445 38.184 78.4259 38.216 78.6179 38.28C78.8099 38.3227 79.0019 38.344 79.1939 38.344C79.3219 38.344 79.4179 38.3333 79.4819 38.312C79.1832 38.4827 78.7885 38.9093 78.2979 39.592C77.8285 40.2533 77.3485 41.0213 76.8579 41.896C76.3672 42.7707 75.9299 43.592 75.5459 44.36C75.9512 43.8693 76.3779 43.3787 76.8259 42.888C77.2739 42.3973 77.7645 41.928 78.2979 41.48C78.8099 41.032 79.4179 40.5733 80.1219 40.104C80.8472 39.6133 81.5512 39.208 82.2339 38.888C82.9165 38.568 83.4605 38.408 83.8659 38.408C84.0152 38.408 84.1219 38.4187 84.1859 38.44C84.1859 38.44 84.0685 38.6533 83.8339 39.08C83.5992 39.4853 83.3005 40.0293 82.9379 40.712C82.5965 41.3733 82.2445 42.088 81.8819 42.856C81.5192 43.6027 81.1885 44.328 80.8899 45.032C80.6125 45.7147 80.4312 46.2907 80.3459 46.76C80.2819 47.0373 80.2499 47.2933 80.2499 47.528C80.2499 47.8693 80.3139 48.0933 80.4419 48.2C80.5699 48.3067 80.7085 48.36 80.8579 48.36C81.2632 48.36 81.6792 48.1787 82.1059 47.816C82.5325 47.4533 82.9379 46.9947 83.3219 46.44C83.7272 45.864 84.1005 45.256 84.4419 44.616C84.7832 43.976 85.0712 43.3787 85.3059 42.824C85.5619 42.824 85.6899 42.92 85.6899 43.112C85.4552 43.688 85.1565 44.328 84.7939 45.032C84.4525 45.7147 84.0579 46.3653 83.6099 46.984C83.1832 47.6027 82.7032 48.1147 82.1699 48.52C81.6365 48.9253 81.0605 49.128 80.4419 49.128C80.0152 49.128 79.5672 48.9787 79.0979 48.68C78.6499 48.3813 78.4259 47.8267 78.4259 47.016C78.4259 46.7813 78.4472 46.536 78.4899 46.28C78.5325 46.0027 78.6072 45.704 78.7139 45.384C78.8845 44.9573 79.0872 44.4987 79.3219 44.008C79.5565 43.5173 79.9405 42.8453 80.4739 41.992C80.6232 41.7573 80.7085 41.576 80.7299 41.448C80.7725 41.32 80.7939 41.2133 80.7939 41.128C80.7939 40.872 80.6765 40.744 80.4419 40.744C80.2499 40.744 79.9619 40.8507 79.5779 41.064C79.2152 41.2773 78.7565 41.6507 78.2019 42.184C77.6685 42.696 77.0285 43.4213 76.2819 44.36C75.5565 45.2987 74.7139 46.6853 73.7539 48.52C73.6045 48.7973 73.4339 48.9467 73.2419 48.968C73.0712 48.9893 72.8259 49.0107 72.5059 49.032C72.2925 49.0533 72.0899 49.064 71.8979 49.064C71.7059 49.0853 71.5459 49.1493 71.4179 49.256ZM93.5264 49.096C93.0357 49.096 92.5984 48.9573 92.2144 48.68C91.8517 48.4027 91.6704 47.8373 91.6704 46.984C91.6704 46.6213 91.6917 46.28 91.7344 45.96C91.7984 45.64 91.873 45.2987 91.9584 44.936C91.7664 45.256 91.4997 45.6507 91.1584 46.12C90.817 46.5893 90.433 47.048 90.0064 47.496C89.601 47.944 89.1744 48.3173 88.7264 48.616C88.2997 48.9147 87.8944 49.064 87.5104 49.064C86.9557 49.064 86.5077 48.8187 86.1664 48.328C85.825 47.816 85.6544 47.1547 85.6544 46.344C85.6544 45.4693 85.857 44.5307 86.2624 43.528C86.6677 42.5253 87.2224 41.5653 87.9264 40.648C88.6304 39.7307 89.441 38.984 90.3584 38.408C91.2757 37.832 92.2357 37.544 93.2384 37.544C93.729 37.544 94.1984 37.6293 94.6464 37.8C95.0944 37.9493 95.489 38.2053 95.8304 38.568C95.9797 38.7173 96.0544 38.888 96.0544 39.08C96.0544 39.208 96.001 39.3147 95.8944 39.4C95.7877 39.4853 95.649 39.5067 95.4784 39.464C95.2437 38.7173 94.7424 38.344 93.9744 38.344C93.6117 38.344 93.1957 38.4613 92.7264 38.696C92.1504 38.9947 91.5317 39.4747 90.8704 40.136C90.2304 40.776 89.6224 41.512 89.0464 42.344C88.4917 43.1547 88.033 43.976 87.6704 44.808C87.3077 45.64 87.1264 46.3973 87.1264 47.08C87.1264 47.784 87.393 48.136 87.9264 48.136C88.3957 48.136 88.8757 47.912 89.3664 47.464C89.8784 47.016 90.3584 46.4613 90.8064 45.8C91.2757 45.1173 91.7024 44.4453 92.0864 43.784C92.4704 43.1227 92.769 42.5893 92.9824 42.184C93.3024 41.608 93.601 41.128 93.8784 40.744C94.1557 40.36 94.5504 40.168 95.0624 40.168C95.297 40.168 95.5317 40.2 95.7664 40.264C96.001 40.328 96.2464 40.3387 96.5024 40.296C95.8624 40.936 95.297 41.6933 94.8064 42.568C94.337 43.4427 93.9744 44.3067 93.7184 45.16C93.4624 45.992 93.3344 46.696 93.3344 47.272C93.3344 47.912 93.5477 48.232 93.9744 48.232C94.3157 48.232 94.6784 48.04 95.0624 47.656C95.4677 47.272 95.8517 46.792 96.2144 46.216C96.5984 45.6187 96.9504 45.0213 97.2704 44.424C97.5904 43.8053 97.8464 43.272 98.0384 42.824C98.145 42.824 98.2304 42.8347 98.2944 42.856C98.3797 42.8773 98.4224 42.9627 98.4224 43.112C98.401 43.1973 98.3584 43.2933 98.2944 43.4C98.2517 43.4853 98.177 43.6453 98.0704 43.88C97.8997 44.2213 97.665 44.68 97.3664 45.256C97.0677 45.832 96.7157 46.4187 96.3104 47.016C95.905 47.592 95.4677 48.0827 94.9984 48.488C94.529 48.8933 94.0384 49.096 93.5264 49.096ZM106.659 49C105.934 49 105.4 48.7547 105.059 48.264C104.718 47.7733 104.547 47.1973 104.547 46.536C104.547 46.344 104.558 46.152 104.579 45.96C104.6 45.7467 104.643 45.5333 104.707 45.32C104.408 45.7893 104.056 46.312 103.651 46.888C103.267 47.4427 102.819 47.9333 102.307 48.36C101.816 48.7653 101.262 48.968 100.643 48.968C100.366 48.968 100.046 48.904 99.6831 48.776C99.3418 48.648 99.0325 48.4027 98.7551 48.04C98.4991 47.6773 98.3711 47.144 98.3711 46.44C98.3711 45.5227 98.5738 44.552 98.9791 43.528C99.3845 42.504 99.9391 41.544 100.643 40.648C101.347 39.7307 102.147 38.9947 103.043 38.44C103.939 37.864 104.867 37.576 105.827 37.576C106.595 37.576 107.32 37.7787 108.003 38.184C108.323 37.5867 108.664 36.9253 109.027 36.2C109.39 35.4533 109.752 34.7173 110.115 33.992C110.478 33.2667 110.798 32.6053 111.075 32.008C111.352 31.3893 111.566 30.92 111.715 30.6C112.035 29.8533 112.334 29.384 112.611 29.192C112.91 28.9787 113.262 28.872 113.667 28.872C113.902 28.872 114.158 28.904 114.435 28.968C114.734 29.0107 115.022 29.0213 115.299 29C115.192 29.1067 114.947 29.4587 114.563 30.056C114.179 30.6533 113.71 31.432 113.155 32.392C112.6 33.3307 112.003 34.3653 111.363 35.496C110.744 36.6267 110.126 37.7893 109.507 38.984C108.91 40.1573 108.355 41.288 107.843 42.376C107.331 43.464 106.926 44.424 106.627 45.256C106.328 46.088 106.179 46.7173 106.179 47.144C106.179 47.4213 106.243 47.6667 106.371 47.88C106.499 48.072 106.712 48.168 107.011 48.168C107.416 48.168 107.832 47.9653 108.259 47.56C108.686 47.1547 109.091 46.6533 109.475 46.056C109.88 45.4373 110.232 44.84 110.531 44.264C110.851 43.6667 111.086 43.1867 111.235 42.824C111.491 42.824 111.619 42.92 111.619 43.112C111.427 43.56 111.171 44.1147 110.851 44.776C110.531 45.4373 110.158 46.088 109.731 46.728C109.304 47.368 108.824 47.912 108.291 48.36C107.779 48.7867 107.235 49 106.659 49ZM100.867 48.04C101.166 48.04 101.539 47.88 101.987 47.56C102.435 47.2187 102.915 46.6853 103.427 45.96C104.024 45.1067 104.707 44.04 105.475 42.76C106.243 41.48 107 40.1253 107.747 38.696C107.598 38.568 107.438 38.472 107.267 38.408C107.096 38.344 106.862 38.312 106.563 38.312C106.072 38.312 105.528 38.5253 104.931 38.952C104.355 39.3573 103.768 39.8907 103.171 40.552C102.595 41.2133 102.062 41.928 101.571 42.696C101.102 43.464 100.718 44.2107 100.419 44.936C100.142 45.64 100.003 46.248 100.003 46.76C100.003 47.6133 100.291 48.04 100.867 48.04ZM114.821 49.128C114.032 49.128 113.317 48.872 112.677 48.36C112.059 47.848 111.749 47.0693 111.749 46.024C111.749 45.1493 111.941 44.2213 112.325 43.24C112.731 42.2587 113.253 41.3413 113.893 40.488C114.555 39.6133 115.28 38.9093 116.069 38.376C116.88 37.8213 117.691 37.544 118.501 37.544C118.907 37.544 119.301 37.6613 119.685 37.896C120.069 38.1307 120.261 38.536 120.261 39.112C120.261 39.6453 120.059 40.232 119.653 40.872C119.248 41.512 118.672 42.1093 117.925 42.664C117.605 42.8987 117.2 43.1227 116.709 43.336C116.219 43.5493 115.728 43.7307 115.237 43.88C114.747 44.008 114.341 44.072 114.021 44.072C113.915 44.328 113.808 44.6693 113.701 45.096C113.616 45.5227 113.573 45.96 113.573 46.408C113.573 46.9413 113.68 47.4213 113.893 47.848C114.107 48.2747 114.501 48.488 115.077 48.488C115.781 48.488 116.432 48.2853 117.029 47.88C117.648 47.4747 118.192 46.9627 118.661 46.344C119.152 45.7253 119.568 45.096 119.909 44.456C120.251 43.816 120.517 43.272 120.709 42.824C120.965 42.824 121.093 42.92 121.093 43.112C120.816 43.7093 120.496 44.36 120.133 45.064C119.792 45.768 119.376 46.4293 118.885 47.048C118.416 47.6453 117.84 48.1467 117.157 48.552C116.496 48.936 115.717 49.128 114.821 49.128ZM114.245 43.496C114.544 43.496 115.045 43.3893 115.749 43.176C116.453 42.9413 117.093 42.5787 117.669 42.088C118.224 41.5973 118.651 41.064 118.949 40.488C119.248 39.8907 119.397 39.3893 119.397 38.984C119.397 38.5147 119.227 38.28 118.885 38.28C118.629 38.28 118.277 38.4507 117.829 38.792C117.381 39.1333 116.827 39.7093 116.165 40.52C115.76 41.032 115.376 41.5867 115.013 42.184C114.651 42.7813 114.395 43.2187 114.245 43.496ZM122.017 42.728C122.188 42.3653 122.412 41.7893 122.689 41C122.966 40.1893 123.254 39.2933 123.553 38.312C123.852 37.3307 124.076 36.4027 124.225 35.528C124.289 35.1867 124.406 34.9413 124.577 34.792C124.748 34.6213 124.929 34.536 125.121 34.536C125.398 34.536 125.654 34.6747 125.889 34.952C126.124 35.208 126.241 35.5813 126.241 36.072C126.241 36.6693 126.06 37.1813 125.697 37.608C125.356 38.0347 124.929 38.44 124.417 38.824C124.63 38.8453 124.854 38.8667 125.089 38.888C125.324 38.888 125.58 38.888 125.857 38.888C126.86 38.888 127.852 38.824 128.833 38.696C128.876 38.824 128.897 38.92 128.897 38.984C128.897 39.2613 128.812 39.6133 128.641 40.04C128.492 40.4667 128.332 40.8507 128.161 41.192C128.076 41.384 127.905 41.736 127.649 42.248C127.393 42.7387 127.116 43.304 126.817 43.944C126.518 44.5627 126.262 45.1813 126.049 45.8C125.857 46.3973 125.761 46.9093 125.761 47.336C125.761 47.8907 125.974 48.168 126.401 48.168C126.806 48.168 127.372 47.6987 128.097 46.76C128.822 45.8 129.548 44.488 130.273 42.824C130.529 42.824 130.657 42.92 130.657 43.112C130.422 43.688 130.124 44.3173 129.761 45C129.42 45.6827 129.036 46.3333 128.609 46.952C128.182 47.5493 127.724 48.0507 127.233 48.456C126.742 48.84 126.23 49.032 125.697 49.032C125.292 49.032 124.886 48.872 124.481 48.552C124.076 48.2107 123.873 47.6667 123.873 46.92C123.873 46.2587 124.001 45.6187 124.257 45C124.513 44.36 124.801 43.7627 125.121 43.208C125.441 42.6533 125.729 42.1627 125.985 41.736C126.241 41.3093 126.369 40.968 126.369 40.712C126.369 40.328 126.124 40.0507 125.633 39.88C125.164 39.7093 124.545 39.6133 123.777 39.592C123.393 40.5733 123.105 41.2987 122.913 41.768C122.721 42.2373 122.54 42.6853 122.369 43.112C122.028 43.112 121.91 42.984 122.017 42.728ZM132.442 49C131.653 49 131.098 48.776 130.778 48.328C130.458 47.8587 130.298 47.3253 130.298 46.728C130.298 46.408 130.33 46.088 130.394 45.768C130.479 45.4267 130.575 45.1173 130.682 44.84L132.826 39.368C132.89 39.1973 132.922 39.048 132.922 38.92C132.922 38.7067 132.869 38.5253 132.762 38.376C132.655 38.2053 132.581 38.088 132.538 38.024L134.298 37.96C134.618 37.9387 134.842 37.9813 134.97 38.088C135.119 38.1733 135.194 38.28 135.194 38.408C135.194 38.536 135.119 38.7707 134.97 39.112C134.757 39.624 134.469 40.264 134.106 41.032C133.743 41.8 133.381 42.5893 133.018 43.4C132.677 44.2107 132.378 44.968 132.122 45.672C131.887 46.376 131.77 46.92 131.77 47.304C131.77 47.5813 131.834 47.816 131.962 48.008C132.111 48.2 132.357 48.296 132.698 48.296C133.146 48.296 133.583 48.1253 134.01 47.784C134.458 47.4213 134.874 46.9627 135.258 46.408C135.642 45.8533 135.994 45.256 136.314 44.616C136.655 43.976 136.943 43.3787 137.178 42.824C137.434 42.824 137.562 42.92 137.562 43.112C137.349 43.6453 137.071 44.2533 136.73 44.936C136.389 45.6187 135.994 46.2693 135.546 46.888C135.119 47.4853 134.639 47.9867 134.106 48.392C133.594 48.7973 133.039 49 132.442 49ZM134.458 36.296C134.309 36.296 134.181 36.2747 134.074 36.232C133.967 36.1893 133.914 36.1147 133.914 36.008C134.575 35.3893 135.226 34.76 135.866 34.12C136.506 33.4587 137.135 32.7973 137.754 32.136C137.925 32.136 138.085 32.232 138.234 32.424C138.405 32.5947 138.49 32.9467 138.49 33.48C138.298 33.6507 138.021 33.8747 137.658 34.152C137.295 34.408 136.901 34.6853 136.474 34.984C136.069 35.2827 135.674 35.5493 135.29 35.784C134.927 36.0187 134.65 36.1893 134.458 36.296ZM145.395 49.096C144.904 49.096 144.467 48.9573 144.083 48.68C143.72 48.4027 143.539 47.8373 143.539 46.984C143.539 46.6213 143.56 46.28 143.603 45.96C143.667 45.64 143.742 45.2987 143.827 44.936C143.635 45.256 143.368 45.6507 143.027 46.12C142.686 46.5893 142.302 47.048 141.875 47.496C141.47 47.944 141.043 48.3173 140.595 48.616C140.168 48.9147 139.763 49.064 139.379 49.064C138.824 49.064 138.376 48.8187 138.035 48.328C137.694 47.816 137.523 47.1547 137.523 46.344C137.523 45.4693 137.726 44.5307 138.131 43.528C138.536 42.5253 139.091 41.5653 139.795 40.648C140.499 39.7307 141.31 38.984 142.227 38.408C143.144 37.832 144.104 37.544 145.107 37.544C145.598 37.544 146.067 37.6293 146.515 37.8C146.963 37.9493 147.358 38.2053 147.699 38.568C147.848 38.7173 147.923 38.888 147.923 39.08C147.923 39.208 147.87 39.3147 147.763 39.4C147.656 39.4853 147.518 39.5067 147.347 39.464C147.112 38.7173 146.611 38.344 145.843 38.344C145.48 38.344 145.064 38.4613 144.595 38.696C144.019 38.9947 143.4 39.4747 142.739 40.136C142.099 40.776 141.491 41.512 140.915 42.344C140.36 43.1547 139.902 43.976 139.539 44.808C139.176 45.64 138.995 46.3973 138.995 47.08C138.995 47.784 139.262 48.136 139.795 48.136C140.264 48.136 140.744 47.912 141.235 47.464C141.747 47.016 142.227 46.4613 142.675 45.8C143.144 45.1173 143.571 44.4453 143.955 43.784C144.339 43.1227 144.638 42.5893 144.851 42.184C145.171 41.608 145.47 41.128 145.747 40.744C146.024 40.36 146.419 40.168 146.931 40.168C147.166 40.168 147.4 40.2 147.635 40.264C147.87 40.328 148.115 40.3387 148.371 40.296C147.731 40.936 147.166 41.6933 146.675 42.568C146.206 43.4427 145.843 44.3067 145.587 45.16C145.331 45.992 145.203 46.696 145.203 47.272C145.203 47.912 145.416 48.232 145.843 48.232C146.184 48.232 146.547 48.04 146.931 47.656C147.336 47.272 147.72 46.792 148.083 46.216C148.467 45.6187 148.819 45.0213 149.139 44.424C149.459 43.8053 149.715 43.272 149.907 42.824C150.014 42.824 150.099 42.8347 150.163 42.856C150.248 42.8773 150.291 42.9627 150.291 43.112C150.27 43.1973 150.227 43.2933 150.163 43.4C150.12 43.4853 150.046 43.6453 149.939 43.88C149.768 44.2213 149.534 44.68 149.235 45.256C148.936 45.832 148.584 46.4187 148.179 47.016C147.774 47.592 147.336 48.0827 146.867 48.488C146.398 48.8933 145.907 49.096 145.395 49.096ZM161.469 50.248C160.999 50.248 160.541 50.216 160.093 50.152C158.749 49.9813 157.757 49.5867 157.117 48.968C156.498 48.3493 156.189 47.6773 156.189 46.952C156.189 46.1627 156.541 45.448 157.245 44.808C157.97 44.168 158.983 43.848 160.285 43.848C160.69 43.848 161.117 43.8907 161.565 43.976C162.034 44.04 162.525 44.1573 163.037 44.328C163.293 44.4133 163.421 44.5307 163.421 44.68C163.421 44.7653 163.357 44.808 163.229 44.808C163.101 44.808 162.994 44.7867 162.909 44.744C162.567 44.616 162.237 44.5307 161.917 44.488C161.618 44.424 161.33 44.392 161.053 44.392C160.135 44.392 159.431 44.6587 158.941 45.192C158.471 45.704 158.237 46.2693 158.237 46.888C158.237 47.4853 158.482 48.0293 158.973 48.52C159.463 49.0107 160.242 49.256 161.309 49.256C162.653 49.256 163.89 48.9467 165.021 48.328C166.173 47.7093 167.261 46.8987 168.285 45.896C169.373 44.8293 170.365 43.5493 171.261 42.056C172.157 40.5413 173.042 38.9307 173.917 37.224C174.813 35.496 175.783 33.7573 176.829 32.008C177.874 30.2587 179.079 28.616 180.445 27.08C180.722 26.7813 180.999 26.472 181.277 26.152C181.575 25.8107 181.863 25.5227 182.141 25.288C181.415 25.1813 180.669 25.1067 179.901 25.064C179.133 25 178.375 24.968 177.629 24.968C176.519 24.968 175.463 25.0213 174.461 25.128C173.479 25.2133 172.498 25.3413 171.517 25.512C170.514 25.704 169.394 26.0027 168.157 26.408C166.919 26.8133 165.714 27.3467 164.541 28.008C163.389 28.648 162.397 29.4267 161.565 30.344C160.754 31.2613 160.253 32.3173 160.061 33.512C160.039 33.6187 160.018 33.736 159.997 33.864C159.997 33.9707 159.997 34.0773 159.997 34.184C159.997 35.1653 160.327 35.976 160.989 36.616C161.671 37.256 162.461 37.576 163.357 37.576C164.018 37.576 164.658 37.4053 165.277 37.064C165.895 36.7013 166.45 36.232 166.941 35.656C167.431 35.0587 167.794 34.408 168.029 33.704C168.05 33.4907 168.135 33.384 168.285 33.384C168.413 33.384 168.477 33.5013 168.477 33.736C168.455 34.6747 168.178 35.4853 167.645 36.168C167.133 36.8507 166.482 37.3733 165.693 37.736C164.903 38.0773 164.103 38.248 163.293 38.248C162.461 38.248 161.671 38.0773 160.925 37.736C160.178 37.3733 159.57 36.8507 159.101 36.168C158.631 35.464 158.397 34.6 158.397 33.576C158.397 32.3813 158.685 31.3253 159.261 30.408C159.858 29.4907 160.647 28.6907 161.629 28.008C162.61 27.304 163.677 26.7173 164.829 26.248C165.981 25.7573 167.133 25.3733 168.285 25.096C169.437 24.7973 170.482 24.5733 171.421 24.424C172.381 24.2747 173.373 24.1573 174.397 24.072C175.442 23.9867 176.498 23.944 177.565 23.944C178.482 23.944 179.399 23.9867 180.317 24.072C181.234 24.1573 182.13 24.2853 183.005 24.456C183.367 24.1787 183.741 23.9333 184.125 23.72C184.509 23.5067 184.935 23.3147 185.405 23.144C185.703 23.016 185.927 22.952 186.077 22.952C186.205 22.952 186.269 22.9947 186.269 23.08C186.269 23.2293 186.098 23.4107 185.757 23.624C185.586 23.7093 185.373 23.8587 185.117 24.072C184.861 24.2853 184.583 24.5307 184.285 24.808C185.671 25.1493 186.919 25.6613 188.029 26.344C189.245 27.0693 190.109 27.8373 190.621 28.648C191.154 29.4587 191.421 30.2907 191.421 31.144C191.421 32.1253 191.122 33.1067 190.525 34.088C189.927 35.048 189.149 35.944 188.189 36.776C187.229 37.608 186.173 38.3333 185.021 38.952C183.869 39.5493 182.727 39.9867 181.597 40.264C180.509 40.5413 179.41 40.744 178.301 40.872C177.191 41 176.199 41.064 175.325 41.064C175.175 41.064 175.015 41.064 174.845 41.064C174.695 41.064 174.546 41.0533 174.397 41.032C173.671 42.056 172.925 43.0587 172.157 44.04C171.389 45 170.525 45.9387 169.565 46.856C168.391 47.9653 167.111 48.808 165.725 49.384C164.338 49.96 162.919 50.248 161.469 50.248ZM174.845 40.328C175.655 40.3493 176.562 40.2853 177.565 40.136C178.567 39.9867 179.57 39.7627 180.573 39.464C182.237 38.952 183.73 38.216 185.053 37.256C186.397 36.296 187.453 35.2293 188.221 34.056C189.01 32.8827 189.405 31.7307 189.405 30.6C189.405 29.9173 189.234 29.2667 188.893 28.648C188.573 28.0293 188.039 27.4747 187.293 26.984C186.802 26.664 186.247 26.3867 185.629 26.152C185.01 25.9173 184.359 25.7253 183.677 25.576C182.589 27.112 181.565 28.712 180.605 30.376C179.666 32.04 178.727 33.7147 177.789 35.4C176.871 37.0853 175.89 38.728 174.845 40.328ZM188.876 49.128C188.087 49.128 187.372 48.872 186.732 48.36C186.114 47.848 185.804 47.0693 185.804 46.024C185.804 45.1493 185.996 44.2213 186.38 43.24C186.786 42.2587 187.308 41.3413 187.948 40.488C188.61 39.6133 189.335 38.9093 190.124 38.376C190.935 37.8213 191.746 37.544 192.556 37.544C192.962 37.544 193.356 37.6613 193.74 37.896C194.124 38.1307 194.316 38.536 194.316 39.112C194.316 39.6453 194.114 40.232 193.708 40.872C193.303 41.512 192.727 42.1093 191.98 42.664C191.66 42.8987 191.255 43.1227 190.764 43.336C190.274 43.5493 189.783 43.7307 189.292 43.88C188.802 44.008 188.396 44.072 188.076 44.072C187.97 44.328 187.863 44.6693 187.756 45.096C187.671 45.5227 187.628 45.96 187.628 46.408C187.628 46.9413 187.735 47.4213 187.948 47.848C188.162 48.2747 188.556 48.488 189.132 48.488C189.836 48.488 190.487 48.2853 191.084 47.88C191.703 47.4747 192.247 46.9627 192.716 46.344C193.207 45.7253 193.623 45.096 193.964 44.456C194.306 43.816 194.572 43.272 194.764 42.824C195.02 42.824 195.148 42.92 195.148 43.112C194.871 43.7093 194.551 44.36 194.188 45.064C193.847 45.768 193.431 46.4293 192.94 47.048C192.471 47.6453 191.895 48.1467 191.212 48.552C190.551 48.936 189.772 49.128 188.876 49.128ZM188.3 43.496C188.599 43.496 189.1 43.3893 189.804 43.176C190.508 42.9413 191.148 42.5787 191.724 42.088C192.279 41.5973 192.706 41.064 193.004 40.488C193.303 39.8907 193.452 39.3893 193.452 38.984C193.452 38.5147 193.282 38.28 192.94 38.28C192.684 38.28 192.332 38.4507 191.884 38.792C191.436 39.1333 190.882 39.7093 190.22 40.52C189.815 41.032 189.431 41.5867 189.068 42.184C188.706 42.7813 188.45 43.2187 188.3 43.496ZM202.664 32.104C202.387 32.5093 202.077 33.0213 201.736 33.64C201.395 34.2587 201.075 34.856 200.776 35.432C200.499 36.008 200.285 36.4453 200.136 36.744H203.08C203.08 36.8293 203.037 36.968 202.952 37.16C202.888 37.352 202.749 37.4907 202.536 37.576H199.752C199.496 38.152 199.197 38.8453 198.856 39.656C198.536 40.4667 198.216 41.3093 197.896 42.184C197.597 43.0587 197.341 43.88 197.128 44.648C196.936 45.3947 196.84 46.0027 196.84 46.472C196.84 47.112 196.925 47.592 197.096 47.912C197.267 48.2107 197.576 48.36 198.024 48.36C198.6 48.36 199.155 48.0827 199.688 47.528C200.221 46.952 200.723 46.2373 201.192 45.384C201.683 44.5307 202.109 43.6773 202.472 42.824C202.728 42.824 202.856 42.92 202.856 43.112C202.621 43.688 202.333 44.3173 201.992 45C201.651 45.6827 201.256 46.344 200.808 46.984C200.381 47.6027 199.891 48.1147 199.336 48.52C198.803 48.904 198.205 49.096 197.544 49.096C196.648 49.096 196.04 48.8507 195.72 48.36C195.4 47.848 195.24 47.1973 195.24 46.408C195.24 45.832 195.347 45.1387 195.56 44.328C195.773 43.496 196.029 42.6427 196.328 41.768C196.648 40.8933 196.957 40.0827 197.256 39.336C197.555 38.568 197.789 37.9813 197.96 37.576H195.912C195.912 37.4053 195.987 37.224 196.136 37.032C196.285 36.84 196.445 36.744 196.616 36.744H198.312C198.483 36.4027 198.675 35.976 198.888 35.464C199.123 34.952 199.432 34.3867 199.816 33.768C200.136 33.256 200.541 32.8507 201.032 32.552C201.544 32.2533 202.088 32.104 202.664 32.104ZM203.789 42.728C203.96 42.3653 204.184 41.7893 204.461 41C204.739 40.1893 205.027 39.2933 205.325 38.312C205.624 37.3307 205.848 36.4027 205.997 35.528C206.061 35.1867 206.179 34.9413 206.349 34.792C206.52 34.6213 206.701 34.536 206.893 34.536C207.171 34.536 207.427 34.6747 207.661 34.952C207.896 35.208 208.013 35.5813 208.013 36.072C208.013 36.6693 207.832 37.1813 207.469 37.608C207.128 38.0347 206.701 38.44 206.189 38.824C206.403 38.8453 206.627 38.8667 206.861 38.888C207.096 38.888 207.352 38.888 207.629 38.888C208.632 38.888 209.624 38.824 210.605 38.696C210.648 38.824 210.669 38.92 210.669 38.984C210.669 39.2613 210.584 39.6133 210.413 40.04C210.264 40.4667 210.104 40.8507 209.933 41.192C209.848 41.384 209.677 41.736 209.421 42.248C209.165 42.7387 208.888 43.304 208.589 43.944C208.291 44.5627 208.035 45.1813 207.821 45.8C207.629 46.3973 207.533 46.9093 207.533 47.336C207.533 47.8907 207.747 48.168 208.173 48.168C208.579 48.168 209.144 47.6987 209.869 46.76C210.595 45.8 211.32 44.488 212.045 42.824C212.301 42.824 212.429 42.92 212.429 43.112C212.195 43.688 211.896 44.3173 211.533 45C211.192 45.6827 210.808 46.3333 210.381 46.952C209.955 47.5493 209.496 48.0507 209.005 48.456C208.515 48.84 208.003 49.032 207.469 49.032C207.064 49.032 206.659 48.872 206.253 48.552C205.848 48.2107 205.645 47.6667 205.645 46.92C205.645 46.2587 205.773 45.6187 206.029 45C206.285 44.36 206.573 43.7627 206.893 43.208C207.213 42.6533 207.501 42.1627 207.757 41.736C208.013 41.3093 208.141 40.968 208.141 40.712C208.141 40.328 207.896 40.0507 207.405 39.88C206.936 39.7093 206.317 39.6133 205.549 39.592C205.165 40.5733 204.877 41.2987 204.685 41.768C204.493 42.2373 204.312 42.6853 204.141 43.112C203.8 43.112 203.683 42.984 203.789 42.728ZM215.623 49.128C214.833 49.128 214.119 48.872 213.479 48.36C212.86 47.848 212.551 47.0693 212.551 46.024C212.551 45.1493 212.743 44.2213 213.127 43.24C213.532 42.2587 214.055 41.3413 214.695 40.488C215.356 39.6133 216.081 38.9093 216.871 38.376C217.681 37.8213 218.492 37.544 219.303 37.544C219.708 37.544 220.103 37.6613 220.487 37.896C220.871 38.1307 221.063 38.536 221.063 39.112C221.063 39.6453 220.86 40.232 220.455 40.872C220.049 41.512 219.473 42.1093 218.727 42.664C218.407 42.8987 218.001 43.1227 217.511 43.336C217.02 43.5493 216.529 43.7307 216.039 43.88C215.548 44.008 215.143 44.072 214.823 44.072C214.716 44.328 214.609 44.6693 214.503 45.096C214.417 45.5227 214.375 45.96 214.375 46.408C214.375 46.9413 214.481 47.4213 214.695 47.848C214.908 48.2747 215.303 48.488 215.879 48.488C216.583 48.488 217.233 48.2853 217.831 47.88C218.449 47.4747 218.993 46.9627 219.463 46.344C219.953 45.7253 220.369 45.096 220.711 44.456C221.052 43.816 221.319 43.272 221.511 42.824C221.767 42.824 221.895 42.92 221.895 43.112C221.617 43.7093 221.297 44.36 220.935 45.064C220.593 45.768 220.177 46.4293 219.687 47.048C219.217 47.6453 218.641 48.1467 217.959 48.552C217.297 48.936 216.519 49.128 215.623 49.128ZM215.047 43.496C215.345 43.496 215.847 43.3893 216.551 43.176C217.255 42.9413 217.895 42.5787 218.471 42.088C219.025 41.5973 219.452 41.064 219.751 40.488C220.049 39.8907 220.199 39.3893 220.199 38.984C220.199 38.5147 220.028 38.28 219.687 38.28C219.431 38.28 219.079 38.4507 218.631 38.792C218.183 39.1333 217.628 39.7093 216.967 40.52C216.561 41.032 216.177 41.5867 215.815 42.184C215.452 42.7813 215.196 43.2187 215.047 43.496ZM224.29 49.096C223.501 49.096 222.914 48.8613 222.53 48.392C222.167 47.9013 221.986 47.3253 221.986 46.664C221.986 45.9813 222.082 45.2773 222.274 44.552C222.466 43.8267 222.637 43.2187 222.786 42.728C223.127 41.5333 223.554 40.264 224.066 38.92C224.599 37.5547 225.175 36.2213 225.794 34.92C226.434 33.5973 227.063 32.4133 227.682 31.368C228.173 30.536 228.695 29.9173 229.25 29.512C229.826 29.0853 230.327 28.872 230.754 28.872C231.095 28.872 231.362 29 231.554 29.256C231.767 29.4907 231.874 29.8533 231.874 30.344C231.874 30.6853 231.81 31.0907 231.682 31.56C231.575 32.0293 231.383 32.5627 231.106 33.16C230.359 34.824 229.463 36.488 228.418 38.152C227.394 39.816 226.093 41.3733 224.514 42.824C224.258 43.4213 224.045 44.0613 223.874 44.744C223.703 45.4267 223.618 45.9813 223.618 46.408C223.618 47.7307 224.066 48.392 224.962 48.392C225.645 48.392 226.402 47.9013 227.234 46.92C228.066 45.9173 228.855 44.552 229.602 42.824C229.687 42.824 229.773 42.8453 229.858 42.888C229.943 42.9093 229.986 42.984 229.986 43.112C229.751 43.688 229.453 44.328 229.09 45.032C228.749 45.7147 228.343 46.3653 227.874 46.984C227.426 47.6027 226.903 48.1147 226.306 48.52C225.709 48.904 225.037 49.096 224.29 49.096ZM224.77 41.8C225.538 41.0107 226.285 40.104 227.01 39.08C227.735 38.0347 228.407 36.9573 229.026 35.848C229.666 34.7173 230.199 33.6507 230.626 32.648C230.775 32.328 230.893 31.976 230.978 31.592C231.085 31.208 231.138 30.888 231.138 30.632C231.138 30.3333 231.063 30.184 230.914 30.184C230.829 30.184 230.701 30.2693 230.53 30.44C230.359 30.5893 230.135 30.856 229.858 31.24C229.453 31.7733 229.005 32.4987 228.514 33.416C228.045 34.3333 227.565 35.3147 227.074 36.36C226.583 37.4053 226.135 38.4187 225.73 39.4C225.325 40.36 225.005 41.16 224.77 41.8ZM232.383 49.096C231.593 49.096 231.007 48.8613 230.623 48.392C230.26 47.9013 230.079 47.3253 230.079 46.664C230.079 45.9813 230.175 45.2773 230.367 44.552C230.559 43.8267 230.729 43.2187 230.879 42.728C231.22 41.5333 231.647 40.264 232.159 38.92C232.692 37.5547 233.268 36.2213 233.887 34.92C234.527 33.5973 235.156 32.4133 235.775 31.368C236.265 30.536 236.788 29.9173 237.343 29.512C237.919 29.0853 238.42 28.872 238.847 28.872C239.188 28.872 239.455 29 239.647 29.256C239.86 29.4907 239.967 29.8533 239.967 30.344C239.967 30.6853 239.903 31.0907 239.775 31.56C239.668 32.0293 239.476 32.5627 239.199 33.16C238.452 34.824 237.556 36.488 236.511 38.152C235.487 39.816 234.185 41.3733 232.607 42.824C232.351 43.4213 232.137 44.0613 231.967 44.744C231.796 45.4267 231.711 45.9813 231.711 46.408C231.711 47.7307 232.159 48.392 233.055 48.392C233.737 48.392 234.495 47.9013 235.327 46.92C236.159 45.9173 236.948 44.552 237.695 42.824C237.78 42.824 237.865 42.8453 237.951 42.888C238.036 42.9093 238.079 42.984 238.079 43.112C237.844 43.688 237.545 44.328 237.183 45.032C236.841 45.7147 236.436 46.3653 235.967 46.984C235.519 47.6027 234.996 48.1147 234.399 48.52C233.801 48.904 233.129 49.096 232.383 49.096ZM232.863 41.8C233.631 41.0107 234.377 40.104 235.103 39.08C235.828 38.0347 236.5 36.9573 237.119 35.848C237.759 34.7173 238.292 33.6507 238.719 32.648C238.868 32.328 238.985 31.976 239.071 31.592C239.177 31.208 239.231 30.888 239.231 30.632C239.231 30.3333 239.156 30.184 239.007 30.184C238.921 30.184 238.793 30.2693 238.623 30.44C238.452 30.5893 238.228 30.856 237.951 31.24C237.545 31.7733 237.097 32.4987 236.607 33.416C236.137 34.3333 235.657 35.3147 235.167 36.36C234.676 37.4053 234.228 38.4187 233.823 39.4C233.417 40.36 233.097 41.16 232.863 41.8ZM239.867 49C239.078 49 238.523 48.776 238.203 48.328C237.883 47.8587 237.723 47.3253 237.723 46.728C237.723 46.408 237.755 46.088 237.819 45.768C237.904 45.4267 238 45.1173 238.107 44.84L240.251 39.368C240.315 39.1973 240.347 39.048 240.347 38.92C240.347 38.7067 240.294 38.5253 240.187 38.376C240.08 38.2053 240.006 38.088 239.963 38.024L241.723 37.96C242.043 37.9387 242.267 37.9813 242.395 38.088C242.544 38.1733 242.619 38.28 242.619 38.408C242.619 38.536 242.544 38.7707 242.395 39.112C242.182 39.624 241.894 40.264 241.531 41.032C241.168 41.8 240.806 42.5893 240.443 43.4C240.102 44.2107 239.803 44.968 239.547 45.672C239.312 46.376 239.195 46.92 239.195 47.304C239.195 47.5813 239.259 47.816 239.387 48.008C239.536 48.2 239.782 48.296 240.123 48.296C240.571 48.296 241.008 48.1253 241.435 47.784C241.883 47.4213 242.299 46.9627 242.683 46.408C243.067 45.8533 243.419 45.256 243.739 44.616C244.08 43.976 244.368 43.3787 244.603 42.824C244.859 42.824 244.987 42.92 244.987 43.112C244.774 43.6453 244.496 44.2533 244.155 44.936C243.814 45.6187 243.419 46.2693 242.971 46.888C242.544 47.4853 242.064 47.9867 241.531 48.392C241.019 48.7973 240.464 49 239.867 49ZM242.715 35.976C242.438 35.976 242.192 35.8693 241.979 35.656C241.787 35.4427 241.691 35.1867 241.691 34.888C241.691 34.5253 241.84 34.2053 242.139 33.928C242.438 33.6293 242.768 33.48 243.131 33.48C243.43 33.48 243.686 33.576 243.899 33.768C244.112 33.96 244.219 34.2053 244.219 34.504C244.219 34.888 244.07 35.2293 243.771 35.528C243.472 35.8267 243.12 35.976 242.715 35.976Z" fill="#191000"/>
</g>
<defs>
<filter id="filter0_i_43_16" x="0" y="0" width="270" height="82.375" filterUnits="userSpaceOnUse" color-interpolation-filters="sRGB">
<feFlood flood-opacity="0" result="BackgroundImageFix"/>
<feBlend mode="normal" in="SourceGraphic" in2="BackgroundImageFix" result="shape"/>
<feColorMatrix in="SourceAlpha" type="matrix" values="0 0 0 0 0 0 0 0 0 0 0 0 0 0 0 0 0 0 127 0" result="hardAlpha"/>
<feOffset dy="4"/>
<feGaussianBlur stdDeviation="2"/>
<feComposite in2="hardAlpha" operator="arithmetic" k2="-1" k3="1"/>
<feColorMatrix type="matrix" values="0 0 0 0 0 0 0 0 0 0 0 0 0 0 0 0 0 0 0.26 0"/>
<feBlend mode="normal" in2="shape" result="effect1_innerShadow_43_16"/>
</filter>
<filter id="filter1_d_43_16" x="27.4199" y="22.952" width="221.567" height="35.296" filterUnits="userSpaceOnUse" color-interpolation-filters="sRGB">
<feFlood flood-opacity="0" result="BackgroundImageFix"/>
<feColorMatrix in="SourceAlpha" type="matrix" values="0 0 0 0 0 0 0 0 0 0 0 0 0 0 0 0 0 0 127 0" result="hardAlpha"/>
<feOffset dy="4"/>
<feGaussianBlur stdDeviation="2"/>
<feComposite in2="hardAlpha" operator="out"/>
<feColorMatrix type="matrix" values="0 0 0 0 0 0 0 0 0 0 0 0 0 0 0 0 0 0 0.26 0"/>
<feBlend mode="normal" in2="BackgroundImageFix" result="effect1_dropShadow_43_16"/>
<feBlend mode="normal" in="SourceGraphic" in2="effect1_dropShadow_43_16" result="shape"/>
</filter>
<radialGradient id="paint0_radial_43_16" cx="0" cy="0" r="1" gradientUnits="userSpaceOnUse" gradientTransform="translate(135 39.1875) scale(135 135)">
<stop stop-color="#E1D7A4"/>
<stop offset="1" stop-color="#B49D4C"/>
</radialGradient>
</defs>
</svg>
